<?xml version="1.0" encoding="utf-8"?>
<!-- Generator: Adobe Illustrator 23.0.0, SVG Export Plug-In . SVG Version: 6.00 Build 0)  -->
<svg version="1.1" id="Layer_1" xmlns="http://www.w3.org/2000/svg" xmlns:xlink="http://www.w3.org/1999/xlink" x="0px" y="0px"
	 viewBox="0 0 25 25" style="enable-background:new 0 0 25 25;" xml:space="preserve">
<g>
	<path d="M1.57,12.24l9.2-9.2c0.19-0.19,0.45-0.3,0.72-0.3h0.96c0.91,0,1.36,1.1,0.72,1.74L7.79,9.86C7.15,10.5,7.61,11.6,8.51,11.6
		h14.24c0.56,0,1.02,0.46,1.02,1.02v0.69c0,0.56-0.46,1.02-1.02,1.02H8.51c-0.91,0-1.36,1.1-0.72,1.74l5.37,5.37
		c0.64,0.64,0.19,1.74-0.72,1.74h-0.96c-0.27,0-0.53-0.11-0.72-0.3l-9.2-9.2C1.17,13.28,1.17,12.64,1.57,12.24z"/>
</g>
</svg>
